<svg xmlns="http://www.w3.org/2000/svg" width="200" height="47.451" viewBox="0 0 200 47.451"><path d="M54.852.063c-1.703-.732-15.854 4.841-23.299 18.011-5.94 10.509-6.496 26.635-4.258 27.63.934.414 21.259-34.915 21.259-34.915S29.623 46.833 30.35 47.235c3.094 1.715 14.932-7.034 20.841-17.489 7.445-13.17 5.27-28.99 3.661-29.683z"/><path d="M1.602 10.127c-1.535.968-2.647 13.154 3.523 23.413 4.925 8.188 14.833 15.057 17.014 13.468.81-.587-14.861-27.425-14.861-27.425S23.542 46.131 24.37 45.516c1.347-1.003.953-13.505-3.945-21.649-6.172-10.26-17.303-14.699-18.823-13.74zm82.706 6.466c.2 2.231-1.366 3.831-2.365 4.13-1.232-.666-2.765-1.166-4.197-1.166-3.397 0-5.296 3.031-5.296 7.396 0 4.363 1.899 7.362 5.296 7.362 1.432 0 2.932-.533 4.197-1.2 1.434.334 2.599 2.232 2.365 4.131-1.398.733-3.364 1.566-6.762 1.566-7.661 0-11.226-4.597-11.226-11.859s3.564-11.925 11.226-11.925c3.599-.001 5.563.965 6.762 1.565zm9.428 22.219c-5.063 0-8.594-2.799-8.594-8.895s3.531-8.895 8.594-8.895c5.063 0 8.628 2.799 8.628 8.895s-3.565 8.895-8.628 8.895zm0-13.492c-1.865 0-2.765 1.666-2.765 4.597 0 2.932.899 4.597 2.765 4.597 1.899 0 2.766-1.665 2.766-4.597-.001-2.931-.867-4.597-2.766-4.597zm17.855-4.298c1.633 0 2.499.399 3.298.833v-7.662s.866-.599 2.932-.599 2.898.599 2.898.599v20.42c0 .534.333.768.999.768 0 0 .5.632.5 1.565 0 0-.898 1.865-3.398 1.865-1.466 0-2.397-.634-2.964-1.532-.101.1-1.799 1.532-4.798 1.532-4.863-.067-7.095-3.265-7.095-8.729 0-5.962 2.631-9.06 7.628-9.06zm1.267 13.492c1.299 0 1.997-.565 2.03-.6v-7.928c-.266-.2-.966-.666-2.131-.666-1.966 0-2.965 1.099-2.965 4.631.001 3.497 1 4.563 3.066 4.563zm24.05-1.432c1.2.633 2.032 2.598 1.233 3.964 0 0-2.099 1.766-6.196 1.766-5.229 0-8.628-2.965-8.628-8.795 0-6.296 3.897-8.994 8.661-8.994 4.63 0 7.295 2.632 7.295 8.162v2.364h-10.127c.101 1.633 1.167 2.965 3.099 2.965 2.432 0 4.663-1.432 4.663-1.432zm-3.464-4.264c0-2.365-.499-3.498-1.998-3.498-1.534 0-2.3.966-2.3 3.498h4.298zm14.825-11.66v4.098h2.797s.566.566.566 1.899c0 1.365-.566 1.965-.566 1.965h-2.797v7.561c0 1.367.3 1.833 1.032 1.833.699 0 1.2-.833 1.2-.833 1.265.333 1.964 2.199 1.497 3.799-.299.299-1.266 1.332-4.097 1.332-3.831 0-5.463-1.666-5.463-5.83V25.12h-1.101l-1.465-.933c0-1.799.4-2.932.4-2.932h2.197v-4.098s.834-.6 2.933-.6c2.034.002 2.867.601 2.867.601zm11.292 4.697v1.033c0-.034 1.166-1.866 3.398-1.866 1.666 0 2.498 1 2.498 1.032.498 1.267.332 3.198-1.099 3.997 0 0-.9-.731-2.133-.731-1.6 0-2.499 1.099-2.499 2.497v10.161s-.833.6-2.897.6c-2.032 0-2.932-.566-2.932-.6V21.855s.801-.6 2.832-.6c1.867.001 2.699.533 2.832.6zm20.186 11.227c1.2.633 2.032 2.598 1.233 3.964 0 0-2.099 1.766-6.196 1.766-5.229 0-8.628-2.965-8.628-8.795 0-6.296 3.897-8.994 8.661-8.994 4.63 0 7.295 2.632 7.295 8.162v2.364h-10.127c.101 1.633 1.167 2.965 3.099 2.965 2.432 0 4.663-1.432 4.663-1.432zm-3.464-4.264c0-2.365-.499-3.498-1.998-3.498-1.533 0-2.3.966-2.3 3.498h4.298zm20.953 4.264c1.199.633 2.032 2.598 1.232 3.964 0 0-2.099 1.766-6.196 1.766-5.229 0-8.627-2.965-8.627-8.795 0-6.296 3.896-8.994 8.661-8.994 4.631 0 7.294 2.632 7.294 8.162v2.364h-10.126c.101 1.633 1.167 2.965 3.099 2.965 2.432 0 4.663-1.432 4.663-1.432zm-3.465-4.264c0-2.365-.498-3.498-1.998-3.498-1.533 0-2.299.966-2.299 3.498h4.297z"/></svg>