<svg xmlns="http://www.w3.org/2000/svg" width="500" height="500" viewBox="0 0 500 500"><path d="M281.25 314.377v-14.422c18.681-16.211 31.25-46.505 31.25-81.205 0-51.777-27.981-93.75-62.5-93.75s-62.5 41.973-62.5 93.75c0 34.702 12.57 64.998 31.253 81.207v14.42c-71.319 8.687-125 46.518-125 91.873H406.25c0-45.355-53.681-83.187-125-91.873zm-124.18-16.715c-13.041-7.967-29.48-13.49-47.694-15.529v-7.169c9.338-8.106 15.625-23.241 15.625-40.589 0-25.889-13.991-46.875-31.25-46.875s-31.25 20.986-31.25 46.875c0 17.348 6.287 32.482 15.625 40.589v7.155C33.788 287.079.001 312.78.001 343.749h87.61c16.622-19.153 40.635-35.1 69.459-46.087zm264.805-15.543v-7.155c9.339-8.106 15.625-23.241 15.625-40.589 0-25.889-13.991-46.875-31.25-46.875S375 208.486 375 234.375c0 17.348 6.287 32.482 15.625 40.589v7.169c-18.213 2.039-34.653 7.563-47.695 15.529 28.824 10.987 52.836 26.934 69.46 46.087H500c0-30.969-33.786-56.67-78.125-61.63z" fill="#333"/></svg>