<svg xmlns="http://www.w3.org/2000/svg" viewBox="6 45.7 153 50"><path d="M155.8 47.7h-47.6c-1.8 0-3.2 1.5-3.2 3.2v39.5c0 1.8 1.5 3.2 3.2 3.2h47.6c1.8 0 3.2-1.5 3.2-3.2V51c0-1.8-1.5-3.3-3.2-3.3zm-38.2 36.2c.1 1.8-1.4 3.2-3.2 3.2-1.8 0-3.2-1.5-3.2-3.2v-26c0-1.8 1.5-3.2 3.2-3.2s3.2 1.5 3.2 3.2v26zm34.8-2.5c1.1 1.3 1 3.4-.3 4.6-.6.5-1.4.8-2.1.8-.9 0-1.8-.3-2.5-1.1l-8.8-10.2-8.9 10.2c-.6.8-1.5 1.1-2.4 1.1-.8 0-1.5-.2-2.1-.8-1.3-1.2-1.5-3.2-.3-4.6l9.4-10.8-9.4-10.9c-1.2-1.3-1-3.4.3-4.6 1.3-1.2 3.4-1.1 4.5.3l8.9 10.2 8.8-10.2c1.2-1.4 3.2-1.5 4.5-.3 1.4 1.2 1.5 3.2.3 4.6L143 70.5l9.4 10.9zM10 78.7v-16H6v-5h9v21h4v5H6v-5h4zm5-30c0 1.7-1.4 3-3 3s-3-1.3-3-3 1.4-3 3-3 3 1.4 3 3zm11 30v-16h-4v-5h9.4v3c3-2.5 6.1-3.5 9.1-3.5s4.9 1.3 6 4c3.3-2.7 6.4-4 9.2-4 1.7 0 3 .3 4 1.1s1.8 1.7 2.2 2.8c.3 1.1.5 2.8.5 5v12.7h4.5v5h-9.5V67c0-1.5 0-2.5-.2-3.1s-.5-1.1-1-1.5c-.5-.4-1.2-.6-2-.6-2.2 0-4.5 1.1-7.3 3.4v13.7h4v5h-9V66.6c0-1.7-.2-2.9-.7-3.7-.5-.8-1.3-1.2-2.5-1.2-1.9 0-4.9.8-7.9 3v14h5.1v5H22v-5h4zm73-21v5h-4.3l-.1 18.7c0 2.6-.2 4.6-.4 5.8s-.9 2.5-1.9 3.8c-1 1.3-2.5 2.4-4.6 3.3-2 .9-4.3 1.3-6.8 1.3-3.8 0-7.1-1.2-10.1-3.4l3.2-3.7c2.2 1.8 4.6 2.6 7.2 2.6 1.4 0 2.8-.3 4-.8 1.2-.5 2.2-1.2 2.8-2 .6-.8 1-1.6 1.2-2.3.2-.7.2-1.9.2-3.7V80c-.8 1-2.1 2-3.7 2.9-1.7.9-3.6 1.3-5.6 1.3-3.7 0-6.7-1.3-8.9-3.8-2.3-2.5-3.5-5.8-3.5-9.5 0-4.1 1.2-7.4 3.8-10 2.6-2.5 5.4-3.8 8.8-3.8 3.3 0 6.8 1.8 9.4 4.5v-4l9.3.1zM73.3 70.8c0 2.6.8 4.8 2.2 6.4 1.5 1.7 3.4 2.5 5.8 2.5 2.3 0 4.2-.8 5.9-2.5s2.5-3.8 2.5-6.4-.8-4.8-2.5-6.4c-1.7-1.6-3.6-2.4-5.8-2.4s-4.1.8-5.7 2.4c-1.5 1.5-2.4 3.7-2.4 6.4z"/></svg>