<svg xmlns="http://www.w3.org/2000/svg" width="135" height="48" viewBox="0 0 135 48"><path fill="#FF0100" d="M21.143 0L0 12v24l21.143 12 21.143-12V12L21.143 0zm9.424 24.506l-5.932 3.201v.439h5.929v4.627h-18.86v-4.627h5.932v-.439l-5.931-3.201v-5.729l9.432 5.089 9.431-5.089v5.729z"/><path d="M63.991 11.973v14.23L71.93 18.6h3.835l-6.896 6.325 7.4 11.067h-3.634l-5.954-9.082-2.691 2.488v6.594h-2.859V11.973h2.86zm14.6 3.499v-3.499h2.86v3.499h-2.86zm2.86 3.128v17.392h-2.86V18.6h2.86zm7.03 0v3.667h.067c.695-1.413 1.547-2.456 2.557-3.128 1.009-.673 2.288-.987 3.835-.942v3.027c-1.145 0-2.119.157-2.927.471s-1.458.774-1.951 1.379c-.493.605-.853 1.34-1.076 2.204-.225.865-.337 1.857-.337 2.978v7.736H85.79V18.6h2.691zm11.573-6.627v8.982h.067c.471-.964 1.212-1.665 2.221-2.103 1.009-.437 2.119-.656 3.33-.656 1.346 0 2.518.247 3.516.74a7.15 7.15 0 0 1 2.49 2.001 8.88 8.88 0 0 1 1.496 2.91c.337 1.099.504 2.265.504 3.498 0 1.234-.162 2.402-.486 3.5-.326 1.1-.82 2.059-1.48 2.875a6.978 6.978 0 0 1-2.489 1.936c-.999.471-2.159.707-3.482.707a8.78 8.78 0 0 1-1.43-.135c-.527-.092-1.049-.236-1.564-.438s-1.004-.477-1.463-.824a4.591 4.591 0 0 1-1.161-1.295h-.067v2.32h-2.859V11.973h2.857zm10.277 12.8a6.399 6.399 0 0 0-.976-2.069 4.776 4.776 0 0 0-1.682-1.447c-.684-.358-1.486-.538-2.406-.538-.964 0-1.782.19-2.456.572a4.92 4.92 0 0 0-1.647 1.497 6.245 6.245 0 0 0-.925 2.103 10.083 10.083 0 0 0-.286 2.388c0 .852.101 1.678.302 2.473.203.797.522 1.498.96 2.102a4.896 4.896 0 0 0 1.699 1.465c.693.369 1.535.555 2.522.555.986 0 1.811-.189 2.473-.572a4.588 4.588 0 0 0 1.599-1.514 6.612 6.612 0 0 0 .875-2.152c.179-.809.268-1.637.268-2.488a8.948 8.948 0 0 0-.32-2.375zm12.548 15.659c-.325.584-.685 1.061-1.076 1.432a3.702 3.702 0 0 1-1.295.807c-.472.168-1.032.252-1.683.252-.336 0-.673-.021-1.01-.066a4.885 4.885 0 0 1-.975-.236v-2.623c.27.09.543.178.824.27.28.088.566.133.857.133.584 0 1.054-.133 1.414-.402.357-.27.672-.662.941-1.178l1.177-2.928-6.894-17.293h3.229l5.079 14.23h.067l4.878-14.23h3.028l-7.569 19.679a18.093 18.093 0 0 1-.992 2.153z" fill="#222"/></svg>