<svg xmlns="http://www.w3.org/2000/svg" width="500" height="500" viewBox="0 0 500 500"><path d="M484.503 425.486L366.069 324.757c-12.243-11.019-25.337-16.077-35.914-15.589C358.112 276.42 375 233.935 375 187.5 375 83.946 291.054 0 187.5 0S0 83.946 0 187.5 83.946 375 187.5 375c46.435 0 88.92-16.888 121.668-44.846-.488 10.577 4.57 23.671 15.589 35.914l100.729 118.434c17.247 19.163 45.421 20.778 62.607 3.592s15.572-45.36-3.591-62.607zM187.5 312.5c-69.035 0-125-55.965-125-125s55.965-125 125-125 125 55.965 125 125-55.964 125-125 125z" fill="#ccc"/></svg>