<svg xmlns="http://www.w3.org/2000/svg" width="512" height="512" viewBox="0 0 512 512"><path d="M512 97.209c-18.838 8.354-39.082 14.001-60.33 16.54 21.686-13 38.343-33.585 46.186-58.115a210.29 210.29 0 0 1-66.705 25.49c-19.16-20.415-46.461-33.17-76.673-33.17-58.011 0-105.044 47.029-105.044 105.039 0 8.233.929 16.25 2.72 23.939-87.3-4.382-164.701-46.2-216.509-109.753-9.042 15.514-14.223 33.558-14.223 52.809 0 36.444 18.544 68.596 46.73 87.433a104.614 104.614 0 0 1-47.577-13.139c-.01.438-.01.878-.01 1.321 0 50.894 36.209 93.348 84.261 103a105.203 105.203 0 0 1-47.438 1.8c13.368 41.73 52.16 72.103 98.126 72.948-35.95 28.175-81.243 44.967-130.458 44.967-8.479 0-16.84-.497-25.058-1.47 46.486 29.805 101.701 47.197 161.021 47.197 193.211 0 298.868-160.062 298.868-298.872 0-4.554-.103-9.084-.305-13.59 20.528-14.81 38.336-33.31 52.418-54.374z" fill="#333"/></svg>